<?xml version="1.0" encoding="UTF-8"?><svg xmlns="http://www.w3.org/2000/svg" xmlns:xlink="http://www.w3.org/1999/xlink" width="1920pt" zoomAndPan="magnify" viewBox="0 0 1920 599.999999" height="599.999999pt" preserveAspectRatio="xMidYMid meet" version="1.2"><defs><g/><clipPath xml:id="clip1" id="clip1"><path d="M 19 22.171875 L 651 22.171875 L 651 577.921875 L 19 577.921875 Z M 19 22.171875 "/></clipPath></defs><g xml:id="surface1" id="surface1"><g clip-rule="nonzero" clip-path="url(#clip1)"><path style=" stroke:none;fill-rule:nonzero;fill:rgb(0%,29.019165%,67.83905%);fill-opacity:1;" d="M 197.492188 22.171875 C 99.300781 22.171875 19.503906 102.582031 19.503906 201.285156 C 19.503906 404.832031 248.1875 505.265625 326.429688 570.902344 L 334.875 577.984375 L 343.320312 570.902344 C 421.5625 505.265625 650.246094 404.832031 650.246094 201.285156 C 650.246094 102.582031 570.449219 22.171875 472.257812 22.171875 C 416.453125 22.171875 367.496094 48.933594 334.875 89.457031 C 302.253906 48.933594 253.296875 22.171875 197.492188 22.171875 Z M 197.492188 48.449219 C 250.351562 48.449219 296.71875 75.617188 323.917969 116.863281 L 334.875 133.488281 L 345.832031 116.863281 C 373.03125 75.617188 419.398438 48.449219 472.257812 48.449219 C 556.144531 48.449219 623.964844 116.683594 623.964844 201.285156 C 623.964844 380.277344 425.238281 472.859375 334.875 544.730469 C 244.511719 472.859375 45.785156 380.277344 45.785156 201.285156 C 45.785156 116.683594 113.605469 48.449219 197.492188 48.449219 Z M 440 140.496094 C 429.882812 140.496094 419.769531 144.324219 412.125 151.964844 L 353.046875 211.035156 L 218.355469 193.074219 C 217.136719 192.910156 215.917969 192.921875 214.699219 193.101562 C 213.484375 193.28125 212.3125 193.625 211.195312 194.132812 C 210.074219 194.640625 209.042969 195.292969 208.105469 196.089844 C 207.167969 196.886719 206.359375 197.796875 205.679688 198.820312 L 192.539062 218.53125 C 192.265625 218.9375 192.019531 219.359375 191.792969 219.792969 C 191.570312 220.230469 191.371094 220.675781 191.195312 221.132812 C 191.019531 221.589844 190.871094 222.054688 190.75 222.53125 C 190.628906 223.003906 190.53125 223.484375 190.460938 223.96875 C 190.394531 224.453125 190.351562 224.9375 190.335938 225.429688 C 190.324219 225.917969 190.335938 226.40625 190.375 226.894531 C 190.417969 227.382812 190.484375 227.867188 190.578125 228.347656 C 190.671875 228.828125 190.792969 229.300781 190.941406 229.769531 C 191.085938 230.234375 191.261719 230.691406 191.457031 231.140625 C 191.65625 231.585938 191.878906 232.023438 192.125 232.445312 C 192.375 232.867188 192.644531 233.277344 192.9375 233.667969 C 193.230469 234.0625 193.542969 234.4375 193.878906 234.792969 C 194.210938 235.152344 194.566406 235.488281 194.9375 235.808594 C 195.308594 236.125 195.699219 236.421875 196.105469 236.695312 C 196.507812 236.96875 196.929688 237.222656 197.363281 237.449219 C 197.796875 237.675781 198.242188 237.878906 198.695312 238.058594 L 290.371094 273.699219 L 252.851562 311.214844 L 216.609375 311.214844 C 214.867188 311.214844 213.191406 311.550781 211.582031 312.21875 C 209.972656 312.882812 208.550781 313.832031 207.320312 315.066406 L 194.179688 328.203125 C 193.8125 328.570312 193.46875 328.957031 193.148438 329.363281 C 192.828125 329.773438 192.53125 330.195312 192.261719 330.640625 C 191.992188 331.082031 191.746094 331.539062 191.53125 332.011719 C 191.3125 332.480469 191.125 332.964844 190.96875 333.457031 C 190.808594 333.949219 190.679688 334.453125 190.578125 334.960938 C 190.476562 335.46875 190.410156 335.984375 190.371094 336.5 C 190.328125 337.015625 190.320312 337.535156 190.34375 338.054688 C 190.367188 338.570312 190.417969 339.085938 190.5 339.597656 C 190.585938 340.109375 190.695312 340.613281 190.839844 341.113281 C 190.984375 341.613281 191.15625 342.101562 191.355469 342.578125 C 191.554688 343.058594 191.785156 343.523438 192.039062 343.972656 C 192.296875 344.425781 192.578125 344.859375 192.882812 345.277344 C 193.191406 345.695312 193.523438 346.09375 193.875 346.472656 C 194.230469 346.851562 194.605469 347.207031 195.003906 347.539062 C 195.398438 347.875 195.816406 348.183594 196.246094 348.46875 C 196.679688 348.753906 197.128906 349.011719 197.59375 349.246094 L 246.230469 373.570312 L 270.558594 422.199219 C 270.789062 422.664062 271.050781 423.109375 271.335938 423.542969 C 271.621094 423.976562 271.929688 424.390625 272.265625 424.789062 C 272.597656 425.183594 272.953125 425.5625 273.332031 425.914062 C 273.710938 426.269531 274.109375 426.601562 274.527344 426.90625 C 274.945312 427.214844 275.382812 427.496094 275.832031 427.75 C 276.285156 428.007812 276.75 428.234375 277.226562 428.4375 C 277.703125 428.636719 278.191406 428.808594 278.691406 428.953125 C 279.191406 429.09375 279.695312 429.207031 280.207031 429.289062 C 280.71875 429.375 281.234375 429.425781 281.753906 429.449219 C 282.269531 429.46875 282.789062 429.460938 283.304688 429.421875 C 283.824219 429.382812 284.335938 429.3125 284.84375 429.214844 C 285.355469 429.113281 285.855469 428.984375 286.347656 428.824219 C 286.84375 428.664062 287.324219 428.476562 287.796875 428.261719 C 288.269531 428.042969 288.726562 427.800781 289.167969 427.53125 C 289.609375 427.257812 290.035156 426.964844 290.441406 426.644531 C 290.851562 426.320312 291.238281 425.976562 291.605469 425.613281 L 304.746094 412.472656 C 305.976562 411.242188 306.925781 409.820312 307.59375 408.210938 C 308.261719 406.601562 308.59375 404.925781 308.59375 403.183594 L 308.59375 366.953125 L 346.117188 329.433594 L 381.765625 421.09375 C 381.941406 421.550781 382.144531 421.996094 382.375 422.429688 C 382.601562 422.863281 382.851562 423.28125 383.125 423.6875 C 383.402344 424.09375 383.699219 424.480469 384.015625 424.855469 C 384.332031 425.226562 384.671875 425.582031 385.027344 425.914062 C 385.386719 426.25 385.761719 426.5625 386.152344 426.855469 C 386.546875 427.148438 386.953125 427.417969 387.378906 427.664062 C 387.800781 427.910156 388.234375 428.132812 388.683594 428.332031 C 389.128906 428.53125 389.589844 428.703125 390.054688 428.851562 C 390.523438 429 390.996094 429.121094 391.476562 429.214844 C 391.957031 429.308594 392.441406 429.375 392.929688 429.414062 C 393.417969 429.457031 393.90625 429.46875 394.394531 429.453125 C 394.886719 429.441406 395.371094 429.398438 395.855469 429.328125 C 396.339844 429.261719 396.820312 429.164062 397.296875 429.042969 C 397.769531 428.917969 398.234375 428.769531 398.691406 428.597656 C 399.148438 428.421875 399.597656 428.222656 400.03125 427.996094 C 400.464844 427.773438 400.886719 427.527344 401.296875 427.253906 L 421.007812 414.117188 C 422.03125 413.433594 422.941406 412.625 423.738281 411.6875 C 424.535156 410.75 425.1875 409.722656 425.699219 408.601562 C 426.207031 407.480469 426.550781 406.3125 426.730469 405.09375 C 426.910156 403.878906 426.917969 402.660156 426.753906 401.4375 L 408.789062 266.773438 L 467.871094 207.699219 C 483.152344 192.421875 483.152344 167.246094 467.871094 151.964844 C 460.230469 144.324219 450.113281 140.496094 440 140.496094 Z M 440 166.617188 C 443.332031 166.617188 446.667969 167.921875 449.289062 170.542969 C 454.53125 175.785156 454.53125 183.882812 449.289062 189.121094 L 385.613281 252.785156 C 384.898438 253.5 384.273438 254.285156 383.738281 255.144531 C 383.207031 256 382.777344 256.910156 382.449219 257.867188 C 382.125 258.824219 381.914062 259.804688 381.816406 260.808594 C 381.71875 261.816406 381.734375 262.820312 381.867188 263.820312 L 399.140625 393.253906 L 363.3125 301.15625 C 363.113281 300.648438 362.886719 300.15625 362.628906 299.679688 C 362.371094 299.199219 362.082031 298.738281 361.769531 298.296875 C 361.453125 297.851562 361.109375 297.429688 360.742188 297.03125 C 360.375 296.628906 359.984375 296.253906 359.570312 295.902344 C 359.152344 295.546875 358.71875 295.222656 358.265625 294.925781 C 357.808594 294.628906 357.335938 294.359375 356.847656 294.117188 C 356.359375 293.878906 355.859375 293.671875 355.34375 293.492188 C 354.832031 293.316406 354.308594 293.171875 353.773438 293.058594 C 353.242188 292.945312 352.707031 292.867188 352.164062 292.820312 C 351.621094 292.777344 351.078125 292.765625 350.535156 292.785156 C 349.992188 292.808594 349.449219 292.863281 348.914062 292.953125 C 348.378906 293.042969 347.847656 293.164062 347.328125 293.316406 C 346.804688 293.472656 346.292969 293.660156 345.796875 293.878906 C 345.296875 294.09375 344.816406 294.34375 344.347656 294.621094 C 343.878906 294.898438 343.429688 295.203125 343 295.539062 C 342.570312 295.871094 342.164062 296.230469 341.777344 296.613281 L 286.164062 352.222656 C 284.929688 353.453125 283.980469 354.875 283.3125 356.484375 C 282.648438 358.09375 282.3125 359.769531 282.3125 361.511719 L 282.3125 386.941406 L 267.785156 357.894531 C 267.152344 356.621094 266.332031 355.484375 265.324219 354.476562 C 264.320312 353.472656 263.179688 352.652344 261.910156 352.015625 L 232.855469 337.492188 L 258.289062 337.492188 C 260.035156 337.492188 261.710938 337.160156 263.320312 336.492188 C 264.929688 335.824219 266.351562 334.875 267.582031 333.644531 L 323.199219 278.035156 C 323.582031 277.652344 323.941406 277.246094 324.273438 276.816406 C 324.609375 276.386719 324.914062 275.9375 325.191406 275.46875 C 325.46875 275 325.71875 274.519531 325.9375 274.019531 C 326.152344 273.523438 326.339844 273.011719 326.496094 272.488281 C 326.648438 271.96875 326.769531 271.441406 326.859375 270.902344 C 326.949219 270.367188 327.003906 269.824219 327.027344 269.28125 C 327.046875 268.738281 327.035156 268.195312 326.992188 267.652344 C 326.945312 267.113281 326.867188 266.574219 326.753906 266.042969 C 326.640625 265.511719 326.496094 264.988281 326.320312 264.472656 C 326.140625 263.957031 325.933594 263.457031 325.695312 262.96875 C 325.453125 262.480469 325.1875 262.007812 324.886719 261.554688 C 324.589844 261.097656 324.265625 260.664062 323.914062 260.25 C 323.558594 259.835938 323.183594 259.445312 322.78125 259.074219 C 322.382812 258.707031 321.960938 258.367188 321.515625 258.050781 C 321.074219 257.734375 320.613281 257.449219 320.132812 257.191406 C 319.65625 256.933594 319.160156 256.703125 318.65625 256.507812 L 226.542969 220.683594 L 355.996094 237.953125 C 357 238.085938 358.003906 238.105469 359.007812 238.007812 C 360.015625 237.90625 360.996094 237.695312 361.953125 237.371094 C 362.910156 237.046875 363.816406 236.617188 364.675781 236.082031 C 365.535156 235.546875 366.320312 234.921875 367.03125 234.207031 L 430.707031 170.542969 C 433.328125 167.921875 436.664062 166.617188 440 166.617188 Z M 440 166.617188 "/></g><g style="fill:rgb(0%,0%,0%);fill-opacity:1;"><g transform="translate(673.59817, 372.000004)"><path style="stroke:none;" d="M 65.203125 -87.03125 L 65.203125 0 L 15.78125 0 L 15.78125 -216.921875 L 65.203125 -216.921875 L 65.203125 -130.421875 L 135.15625 -130.421875 L 135.15625 -216.921875 L 184.578125 -216.921875 L 184.578125 0 L 135.15625 0 L 135.15625 -87.03125 Z M 65.203125 -87.03125 "/></g></g><g style="fill:rgb(0%,0%,0%);fill-opacity:1;"><g transform="translate(873.959994, 372.000004)"><path style="stroke:none;" d="M 28.53125 -16.03125 C 13.539062 -29.351562 6.046875 -46.445312 6.046875 -67.3125 C 6.046875 -88.175781 13.84375 -105.3125 29.4375 -118.71875 C 45.039062 -132.125 64.328125 -138.828125 87.296875 -138.828125 C 109.910156 -138.828125 128.972656 -132.078125 144.484375 -118.578125 C 159.992188 -105.085938 167.75 -88 167.75 -67.3125 C 167.75 -46.625 160.164062 -29.578125 145 -16.171875 C 129.84375 -2.765625 110.609375 3.9375 87.296875 3.9375 C 63.109375 3.9375 43.519531 -2.71875 28.53125 -16.03125 Z M 64.546875 -90.1875 C 58.503906 -84.226562 55.484375 -76.601562 55.484375 -67.3125 C 55.484375 -58.019531 58.375 -50.4375 64.15625 -44.5625 C 69.9375 -38.695312 77.5625 -35.765625 87.03125 -35.765625 C 96.144531 -35.765625 103.640625 -38.742188 109.515625 -44.703125 C 115.390625 -50.660156 118.328125 -58.195312 118.328125 -67.3125 C 118.328125 -76.601562 115.300781 -84.226562 109.25 -90.1875 C 103.195312 -96.144531 95.789062 -99.125 87.03125 -99.125 C 78.09375 -99.125 70.597656 -96.144531 64.546875 -90.1875 Z M 64.546875 -90.1875 "/></g></g><g style="fill:rgb(0%,0%,0%);fill-opacity:1;"><g transform="translate(1047.764657, 372.000004)"><path style="stroke:none;" d="M 74.40625 -138.828125 C 82.125 -138.828125 89.75 -137.953125 97.28125 -136.203125 C 104.820312 -134.453125 110.429688 -132.695312 114.109375 -130.9375 L 119.640625 -128.3125 L 104.390625 -97.8125 C 93.867188 -103.425781 83.875 -106.234375 74.40625 -106.234375 C 69.144531 -106.234375 65.421875 -105.660156 63.234375 -104.515625 C 61.046875 -103.378906 59.953125 -101.234375 59.953125 -98.078125 C 59.953125 -97.378906 60.035156 -96.675781 60.203125 -95.96875 C 60.378906 -95.269531 60.726562 -94.613281 61.25 -94 C 61.78125 -93.382812 62.265625 -92.859375 62.703125 -92.421875 C 63.148438 -91.984375 63.894531 -91.5 64.9375 -90.96875 C 65.988281 -90.445312 66.820312 -90.054688 67.4375 -89.796875 C 68.050781 -89.535156 69.0625 -89.140625 70.46875 -88.609375 C 71.875 -88.085938 72.925781 -87.691406 73.625 -87.421875 C 74.320312 -87.160156 75.503906 -86.765625 77.171875 -86.234375 C 78.835938 -85.710938 80.109375 -85.363281 80.984375 -85.1875 C 86.421875 -83.613281 91.15625 -81.863281 95.1875 -79.9375 C 99.21875 -78.007812 103.46875 -75.378906 107.9375 -72.046875 C 112.40625 -68.710938 115.863281 -64.503906 118.3125 -59.421875 C 120.769531 -54.335938 122 -48.550781 122 -42.0625 C 122 -11.394531 100.703125 3.9375 58.109375 3.9375 C 48.460938 3.9375 39.300781 2.445312 30.625 -0.53125 C 21.945312 -3.507812 15.679688 -6.488281 11.828125 -9.46875 L 6.046875 -14.203125 L 24.984375 -46.015625 C 26.378906 -44.785156 28.21875 -43.335938 30.5 -41.671875 C 32.78125 -40.003906 36.898438 -37.722656 42.859375 -34.828125 C 48.816406 -31.941406 53.988281 -30.5 58.375 -30.5 C 68.007812 -30.5 72.828125 -33.742188 72.828125 -40.234375 C 72.828125 -43.210938 71.597656 -45.53125 69.140625 -47.1875 C 66.691406 -48.851562 62.53125 -50.738281 56.65625 -52.84375 C 50.789062 -54.945312 46.191406 -56.878906 42.859375 -58.640625 C 34.441406 -63.015625 27.78125 -67.960938 22.875 -73.484375 C 17.96875 -79.015625 15.515625 -86.335938 15.515625 -95.453125 C 15.515625 -109.117188 20.816406 -119.765625 31.421875 -127.390625 C 42.023438 -135.015625 56.351562 -138.828125 74.40625 -138.828125 Z M 74.40625 -138.828125 "/></g></g><g style="fill:rgb(0%,0%,0%);fill-opacity:1;"><g transform="translate(1177.132144, 372.000004)"><path style="stroke:none;" d="M 23.671875 -134.890625 L 23.671875 -185.109375 L 70.203125 -185.109375 L 70.203125 -134.890625 L 98.609375 -134.890625 L 98.609375 -99.390625 L 70.203125 -99.390625 L 70.203125 -56.53125 C 70.203125 -44.082031 73.707031 -37.859375 80.71875 -37.859375 C 82.46875 -37.859375 84.304688 -38.207031 86.234375 -38.90625 C 88.171875 -39.613281 89.664062 -40.316406 90.71875 -41.015625 L 92.296875 -42.0625 L 103.859375 -4.46875 C 93.867188 1.132812 82.472656 3.9375 69.671875 3.9375 C 60.910156 3.9375 53.375 2.40625 47.0625 -0.65625 C 40.75 -3.726562 35.972656 -7.847656 32.734375 -13.015625 C 29.492188 -18.179688 27.171875 -23.613281 25.765625 -29.3125 C 24.367188 -35.007812 23.671875 -41.101562 23.671875 -47.59375 L 23.671875 -99.390625 L 4.203125 -99.390625 L 4.203125 -134.890625 Z M 23.671875 -134.890625 "/></g></g><g style="fill:rgb(0%,0%,0%);fill-opacity:1;"><g transform="translate(1280.994231, 372.000004)"><path style="stroke:none;" d="M 83.609375 0 L -7.359375 -216.921875 L 48.375 -216.921875 L 103.078125 -74.40625 L 157.765625 -216.921875 L 213.5 -216.921875 L 122.53125 0 Z M 83.609375 0 "/></g></g><g style="fill:rgb(0%,0%,0%);fill-opacity:1;"><g transform="translate(1487.140857, 372.000004)"><path style="stroke:none;" d="M 20.234375 -210.078125 C 25.671875 -215.515625 32.160156 -218.234375 39.703125 -218.234375 C 47.242188 -218.234375 53.726562 -215.515625 59.15625 -210.078125 C 64.59375 -204.648438 67.3125 -198.164062 67.3125 -190.625 C 67.3125 -183.09375 64.59375 -176.609375 59.15625 -171.171875 C 53.726562 -165.734375 47.242188 -163.015625 39.703125 -163.015625 C 32.160156 -163.015625 25.671875 -165.734375 20.234375 -171.171875 C 14.804688 -176.609375 12.09375 -183.09375 12.09375 -190.625 C 12.09375 -198.164062 14.804688 -204.648438 20.234375 -210.078125 Z M 15.78125 -134.890625 L 15.78125 0 L 62.3125 0 L 62.3125 -134.890625 Z M 15.78125 -134.890625 "/></g></g><g style="fill:rgb(0%,0%,0%);fill-opacity:1;"><g transform="translate(1566.549392, 372.000004)"><path style="stroke:none;" d="M 15.78125 0 L 15.78125 -226.125 L 62.3125 -226.125 L 62.3125 0 Z M 15.78125 0 "/></g></g><g style="fill:rgb(0%,0%,0%);fill-opacity:1;"><g transform="translate(1644.643139, 372.000004)"><path style="stroke:none;" d="M 15.78125 0 L 15.78125 -226.125 L 62.3125 -226.125 L 62.3125 0 Z M 15.78125 0 "/></g></g><g style="fill:rgb(0%,0%,0%);fill-opacity:1;"><g transform="translate(1722.736886, 372.000004)"><path style="stroke:none;" d="M 152.234375 -61 L 54.421875 -61 C 54.421875 -51.53125 57.488281 -44.515625 63.625 -39.953125 C 69.757812 -35.398438 76.421875 -33.125 83.609375 -33.125 C 91.148438 -33.125 97.109375 -34.128906 101.484375 -36.140625 C 105.867188 -38.160156 110.867188 -42.15625 116.484375 -48.125 L 150.140625 -31.296875 C 136.117188 -7.804688 112.804688 3.9375 80.203125 3.9375 C 59.859375 3.9375 42.410156 -3.023438 27.859375 -16.953125 C 13.316406 -30.890625 6.046875 -47.675781 6.046875 -67.3125 C 6.046875 -86.945312 13.316406 -103.773438 27.859375 -117.796875 C 42.410156 -131.816406 59.859375 -138.828125 80.203125 -138.828125 C 101.585938 -138.828125 118.984375 -132.644531 132.390625 -120.28125 C 145.796875 -107.925781 152.5 -90.269531 152.5 -67.3125 C 152.5 -64.15625 152.410156 -62.050781 152.234375 -61 Z M 55.75 -86.765625 L 107.015625 -86.765625 C 105.960938 -93.773438 103.203125 -99.164062 98.734375 -102.9375 C 94.265625 -106.707031 88.523438 -108.59375 81.515625 -108.59375 C 73.796875 -108.59375 67.65625 -106.578125 63.09375 -102.546875 C 58.539062 -98.515625 56.09375 -93.253906 55.75 -86.765625 Z M 55.75 -86.765625 "/></g></g></g></svg>